<?xml version="1.0" encoding="utf-8"?>
<!-- Generator: Adobe Illustrator 26.5.1, SVG Export Plug-In . SVG Version: 6.00 Build 0)  -->
<svg version="1.1" id="레이어_1" xmlns="http://www.w3.org/2000/svg" xmlns:xlink="http://www.w3.org/1999/xlink" x="0px"
	 y="0px" viewBox="0 0 16 16" style="enable-background:new 0 0 16 16;" xml:space="preserve">
<style type="text/css">
	.st0{fill:#E4527F;}
	.st1{fill:#FFFFFF;}
</style>
<rect x="-0.6" y="-0.5" class="st0" width="17.3" height="17.3"/>
<path class="st1" d="M11,5c0.3-0.3,0.8-0.3,1.1,0c0.3,0.3,0.3,0.7,0,1l-4,5c-0.3,0.3-0.8,0.3-1.1,0c0,0,0,0,0,0L4.3,8.4
	C4,8.1,4,7.6,4.3,7.3S5,7,5.3,7.3c0,0,0,0,0,0l2.1,2.1L11,5C11,5,11,5,11,5L11,5z"/>
</svg>
