<?xml version="1.0" encoding="utf-8"?>
<!-- Generator: Adobe Illustrator 26.5.1, SVG Export Plug-In . SVG Version: 6.00 Build 0)  -->
<svg version="1.1" id="레이어_1" xmlns="http://www.w3.org/2000/svg" xmlns:xlink="http://www.w3.org/1999/xlink" x="0px"
	 y="0px" viewBox="0 0 16 16" style="enable-background:new 0 0 16 16;" xml:space="preserve">
<style type="text/css">
	.st0{fill:#E4527F;}
</style>
<path class="st0" d="M11,2.5C11,1.1,12.1,0,13.5,0S16,1.1,16,2.5C16,3.9,14.9,5,13.5,5c-0.7,0-1.4-0.3-1.9-0.9L4.9,7.2
	c0.2,0.5,0.2,1,0,1.5l6.7,3.1c0.9-1,2.5-1.2,3.5-0.3s1.2,2.5,0.3,3.5s-2.5,1.2-3.5,0.3c-0.8-0.7-1.1-1.7-0.8-2.6L4.4,9.6
	c-0.9,1-2.5,1.2-3.5,0.3s-1.2-2.5-0.3-3.5s2.5-1.2,3.5-0.3c0.1,0.1,0.2,0.2,0.3,0.3l6.7-3.1C11,3,11,2.8,11,2.5z"/>
</svg>
